# xmcd CD database file
#
# Track frame offsets:
#	150
#	39308
#	80960
#	132314
#	176033
#	214181
#
# Disc length: 3609 seconds
#
# Revision: 0
# Processed by: cddbd v1.5PL3 Copyright (c) Steve Scherf et al.
# Submitted via: CDex 1.51
#
DISCID=540e1706
DTITLE=William Haskell Levine - Songs of Healing
DYEAR=1999
DGENRE=New Age
TTITLE0=Temple by a River
TTITLE1=Country Dove Bliss
TTITLE2=Meditation Bells
TTITLE3=Tibetan Calm
TTITLE4=Infinite Pyramid Flute
TTITLE5=Ocean Heart Journey
EXTD=YEAR: 1999
EXTT0=
EXTT1=
EXTT2=
EXTT3=
EXTT4=
EXTT5=
PLAYORDER=
